<svg xmlns="http://www.w3.org/2000/svg" viewBox="0 0 355.22 68.43"><defs><style>.cls-1{fill:#fff;}</style></defs><g id="图层_2" data-name="图层 2"><g id="Layer_1" data-name="Layer 1"><path class="cls-1" d="M329.49,0H298.9V68.43h11.58V46.49h17.64c15.07,0,27.1-7.71,27.1-23.08v-.2C355.22,9.41,345.54,0,329.49,0Zm13.8,23.39c0,7.15-5.68,12.47-14.78,12.47h-18V10.7h18c9,0,14.78,4.47,14.78,12.5Z"/><path class="cls-1" d="M232.33,0H201.74V68.43h11.58V46.49H231c15.07,0,27.1-7.71,27.1-23.08v-.2C258.06,9.41,248.38,0,232.33,0Zm13.8,23.39c0,7.15-5.67,12.47-14.78,12.47h-18V10.7h18c9,0,14.78,4.47,14.78,12.5Z"/><polygon class="cls-1" points="56.18 8.91 56.18 0 1.27 0 1.27 10.74 39.92 10.74 0 59.61 0 68.43 56.2 68.43 56.2 57.7 16.24 57.7 56.18 8.91"/><path class="cls-1" d="M121,34.23h0c-15.7,6.38-21.57,19.58-21.57,34.19h56.17V57.7H114.09C115,49.06,128.31,39.13,140.23,36V32.46C128.31,29.34,115,19.38,114.09,10.74h41.55V0H99.47C99.47,14.65,105.34,27.85,121,34.23Z"/></g></g></svg>